<svg xmlns="http://www.w3.org/2000/svg" width="160" height="40" viewBox="0 0 160 40">
  <defs>
    <linearGradient id="grad1" x1="0%" y1="0%" x2="100%" y2="0%">
      <stop offset="0%" style="stop-color:#4CAF50;stop-opacity:1" />
      <stop offset="100%" style="stop-color:#8BC34A;stop-opacity:1" />
    </linearGradient>
    <linearGradient id="grad2" x1="0%" y1="0%" x2="100%" y2="0%">
      <stop offset="0%" style="stop-color:#FFC107;stop-opacity:1" />
      <stop offset="100%" style="stop-color:#FF9800;stop-opacity:1" />
    </linearGradient>
  </defs>
  <g transform="translate(5,5)">
    <path d="M15.2,2.8A10,10,0,0,0,5.5,0C2.5,0,0,2.5,0,5.5a10,10,0,0,0,2.8,7.3L10,20l7.2-7.2A10,10,0,0,0,20,5.5C20,2.5,17.5,0,14.5,0A10,10,0,0,0,15.2,2.8Z" fill="url(#grad1)"/>
    <path d="M10,3a7,7,0,0,0-7,7c0,3.9,7,11,7,11s7-7.1,7-11A7,7,0,0,0,10,3Zm0,9.5A2.5,2.5,0,1,1,12.5,10,2.5,2.5,0,0,1,10,12.5Z" fill="#FFFFFF" transform="translate(0, -1)"/>
  </g>
  <g transform="translate(30,5)">
    <rect width="20" height="20" rx="3" fill="url(#grad2)"/>
    <path d="M6,15V13H8V11H6V9H8V7H6V5H10V7H12V9H10V11H12V13H10V15H6M14,15V5H18V15H14Z" fill="#FFFFFF" transform="translate(-2, -2)"/>
  </g>
  <text x="58" y="27" font-family="Arial, sans-serif" font-size="20" font-weight="bold" fill="#333">
    TarımKafası
  </text>
</svg>