<svg width="32" height="32" viewBox="0 0 32 32" fill="none" xmlns="http://www.w3.org/2000/svg">
    <path d="M16 2C8.26801 2 2 8.26801 2 16C2 23.732 8.26801 30 16 30C23.732 30 30 23.732 30 16C30 8.26801 23.732 2 16 2Z" fill="#4CAF50"/>
    <path d="M19.9101 10.52C19.5801 10.19 19.0501 10.19 18.7201 10.52L13.9701 15.27L12.5601 13.86C12.2301 13.53 11.7001 13.53 11.3701 13.86C11.0401 14.19 11.0401 14.72 11.3701 15.05L13.3701 17.05C13.5401 17.22 13.7601 17.3 13.9701 17.3C14.1801 17.3 14.4001 17.22 14.5701 17.05L19.9101 11.71C20.2501 11.38 20.2501 10.85 19.9101 10.52Z" fill="white"/>
    <path d="M22 20H10C9.45 20 9 20.45 9 21V23C9 23.55 9.45 24 10 24H22C22.55 24 23 23.55 23 23V21C23 20.45 22.55 20 22 20Z" fill="#A5D6A7"/>
    </svg>